<svg xmlns="http://www.w3.org/2000/svg" viewBox="0 0 20 20" fill="none">
  <path d="M16.6667 16.6667C17.1087 16.6667 17.5326 16.4911 17.8452 16.1785C18.1577 15.866 18.3333 15.442 18.3333 15V6.66667C18.3333 6.22464 18.1577 5.80072 17.8452 5.48816C17.5326 5.17559 17.1087 5 16.6667 5H10.0833C9.80458 5.00273 9.52961 4.93551 9.28357 4.80448C9.03754 4.67346 8.82829 4.48281 8.67499 4.25L7.99999 3.25C7.84823 3.01956 7.64164 2.8304 7.39874 2.6995C7.15584 2.56859 6.88425 2.50005 6.60832 2.5H3.33332C2.8913 2.5 2.46737 2.67559 2.15481 2.98816C1.84225 3.30072 1.66666 3.72464 1.66666 4.16667V15C1.66666 15.442 1.84225 15.866 2.15481 16.1785C2.46737 16.4911 2.8913 16.6667 3.33332 16.6667H16.6667Z" stroke="currentColor" stroke-width="1.66667" stroke-linecap="round" stroke-linejoin="round"/>
</svg>
