<svg width="20" height="20" viewBox="0 0 20 20" fill="none" xmlns="http://www.w3.org/2000/svg">
<g clip-path="url(#clip0_1_679)">
<path d="M10 8.33337V13.3334" stroke="currentColor" stroke-width="1.66667" stroke-linecap="round" stroke-linejoin="round"/>
<path d="M7.5 10.8334H12.5" stroke="currentColor" stroke-width="1.66667" stroke-linecap="round" stroke-linejoin="round"/>
<path d="M16.6666 16.6667C17.1087 16.6667 17.5326 16.4911 17.8451 16.1785C18.1577 15.866 18.3333 15.442 18.3333 15V6.66667C18.3333 6.22464 18.1577 5.80072 17.8451 5.48816C17.5326 5.17559 17.1087 5 16.6666 5H10.0833C9.80455 5.00273 9.52958 4.93551 9.28354 4.80448C9.0375 4.67346 8.82826 4.48281 8.67496 4.25L7.99996 3.25C7.8482 3.01956 7.6416 2.8304 7.39871 2.6995C7.15581 2.56859 6.88422 2.50005 6.60829 2.5H3.33329C2.89127 2.5 2.46734 2.67559 2.15478 2.98816C1.84222 3.30072 1.66663 3.72464 1.66663 4.16667V15C1.66663 15.442 1.84222 15.866 2.15478 16.1785C2.46734 16.4911 2.89127 16.6667 3.33329 16.6667H16.6666Z" stroke="currentColor" stroke-width="1.66667" stroke-linecap="round" stroke-linejoin="round"/>
</g>
<defs>
<clipPath id="clip0_1_679">
<rect width="20" height="20" fill="white"/>
</clipPath>
</defs>
</svg>
